{"title":"The 5th Wave 2016 DVDRip English Movies xviD-TvMovize.mp4","uid":13956562,"size":719815934,"categoryP":"video","categoryS":"movies","magnet":"?xt=urn:btih:00087d9892eb03851bb778bbe9253c5519f66511&amp;dn=The+5th+Wave+2016+DVDRip+English+Movies+xviD-TvMovize.mp4&amp;tr=udp%3A%2F%2Ftracker.leechers-paradise.org%3A6969&amp;tr=udp%3A%2F%2Fzer0day.ch%3A1337&amp;tr=udp%3A%2F%2Fopen.demonii.com%3A1337&amp;tr=udp%3A%2F%2Ftracker.coppersurfer.tk%3A6969&amp;tr=udp%3A%2F%2Fexodus.desync.com%3A6969","seeders":24,"leechers":6,"uploader":"TvMovize","files":1,"time":1458547527,"description":"The 5th Wave 2016 DVDRip English Movies xviD-TvMovize.mp4\r\n\r\n++ ScreenShots ++\r\n \nhttp://www.image2be.com/movie/The5thWave/1.html  \nhttp://www.image2be.com/movie/The5thWave/2.html  \nhttp://www.image2be.com/movie/The5thWave/3.html  \nhttp://www.image2be.com/movie/The5thWave/4.html  \nhttp://www.image2be.com/movie/The5thWave/5.html \r\n\r\n++ Info ++\r\n\r\n\r\nFormat : MPEG-4 \r\nFormat profile : Base Media / Version 2 \r\nCodec ID : mp42 (isom/iso2/avc1/mp41) \r\nFile size : 686 MiB \r\nDuration : 1h 47mn \r\nOverall bit rate mode : Variable \r\nOverall bit rate : 890 Kbps \r\nEncoded date : UTC 2016-03-19 14:23:20 \r\nTagged date : UTC 2016-03-19 14:23:20 \r\nWriting application : HandBrake 0.10.5 2016021100 \r\n\r\nVideo \r\nID : 1 \r\nFormat : AVC \r\nFormat/Info : Advanced Video Codec \r\nFormat profile :    \r\nFormat settings, CABAC : Yes \r\nFormat settings, ReFrames : 4 frames \r\nCodec ID : avc1 \r\nCodec ID/Info : Advanced Video Coding \r\nDuration : 1h 47mn \r\nBit rate : 512 Kbps \r\nWidth : 720 pixels \r\nHeight : 304 pixels \r\nDisplay aspect ratio : 2.35:1 \r\nFrame rate mode : Variable \r\nFrame rate : 24.945 fps \r\nMinimum frame rate : 12.500 fps \r\nMaximum frame rate : 25.000 fps \r\nColor space : YUV \r\nChroma subsampling : 4:2:0 \r\nBit depth : 8 bits \r\nScan type : Progressive \r\nBits/(Pixel*Frame) : 0.094 \r\nStream size : 390 MiB (57%) \r\nWriting library : x264 core 142 r2491 24e4fed \r\nEncoding settings : cabac=1 / ref=3 / deblock=1:0:0 / analyse=0x3:0x113 / me=hex / subme=7 / psy=1 / psy_rd=1.00:0.00 / mixed_ref=1 / me_range=16 / chroma_me=1 / trellis=1 / 8x8dct=1 / cqm=0 / deadzone=21,11 / fast_pskip=1 / chroma_qp_offset=-2 / threads=12 / lookahead_threads=2 / sliced_threads=0 / nr=0 / decimate=1 / interlaced=0 / bluray_compat=0 / constrained_intra=0 / bframes=3 / b_pyramid=2 / b_adapt=1 / b_bias=0 / direct=1 / weightb=1 / open_gop=0 / weightp=2 / keyint=250 / keyint_min=25 / scenecut=40 / intra_refresh=0 / rc_lookahead=40 / rc=abr / mbtree=1 / bitrate=512 / ratetol=1.0 / qcomp=0.60 / qpmin=0 / qpmax=69 / qpstep=4 / vbv_maxrate=17500 / vbv_bufsize=17500 / nal_hrd=none / filler=0 / ip_ratio=1.40 / aq=1:1.00 \r\nEncoded date : UTC 2016-03-19 14:23:20 \r\nTagged date : UTC 2016-03-19 14:23:20 \r\nColor range : Limited \r\nColor primaries : BT.601 PAL \r\nTransfer characteristics : BT.709 \r\nMatrix coefficients : BT.601 \r\n\r\nAudio \r\nID : 2 \r\nFormat : AAC \r\nFormat/Info : Advanced Audio Codec \r\nFormat profile : LC \r\nCodec ID : 40 \r\nDuration : 1h 47mn \r\nBit rate mode : Variable \r\nBit rate : 384 Kbps \r\nChannel(s) : 2 channels \r\nChannel positions : Front: L R \r\nSampling rate : 48.0 KHz \r\nFrame rate : 46.875 fps (1024 spf) \r\nCompression mode : Lossy \r\nStream size : 291 MiB (42%) \r\nTitle : Stereo / Stereo \r\nDefault : Yes \r\nAlternate group : 1 \r\nEncoded date : UTC 2016-03-19 14:23:20 \r\nTagged date : UTC 2016-03-19 14:23:20","torrent":{"xt":"urn:btih:00087d9892eb03851bb778bbe9253c5519f66511","amp;dn":"The+5th+Wave+2016+DVDRip+English+Movies+xviD-TvMovize.mp4","amp;tr":["udp%3A%2F%2Ftracker.leechers-paradise.org%3A6969","udp%3A%2F%2Fzer0day.ch%3A1337","udp%3A%2F%2Fopen.demonii.com%3A1337","udp%3A%2F%2Ftracker.coppersurfer.tk%3A6969","udp%3A%2F%2Fexodus.desync.com%3A6969"],"infoHash":"00087d9892eb03851bb778bbe9253c5519f66511","infoHashBuffer":{"type":"Buffer","data":[0,8,125,152,146,235,3,133,27,183,120,187,233,37,60,85,25,246,101,17]},"announce":[],"urlList":[]}}